#N canvas 2 79 1916 999 12;
#X obj 37 37 sirena;
#X obj 226 640 dac~;
#X obj 228 28 hsl 500 15 0 18000 0 0 empty empty empty -2 -8 0 10 -262144
-1 -1 500 1;
#X msg 48 144 220;
#X msg 148 153 100;
#X floatatom 146 75 15 0 0 0 - - -;
#X obj 284 379 tabwrite~ osc;
#X obj 318 342 metro 200;
#N canvas 642 79 636 999 (subpatch) 0;
#X array osc 50 float 5;
#A 0 -0.226999 -0.223542 -0.220077 -0.216611 -0.213138 -0.209663 -0.206185
-0.202704 -0.199219 -0.195732 -0.192242 -0.188753 -0.185262 -0.18177
-0.178281 -0.174786 -0.171303 -0.167807 -0.164324 -0.16084 -0.157354
-0.153889 -0.15039 -0.146945 -0.143455 -0.140004 -0.136689 -0.1931
-0.197109 -0.197663 -0.195879 -0.192759 -0.189148 -0.185497 -0.181972
-0.17851 -0.175126 -0.171572 -0.16784 -0.164077 -0.160315 -0.156579
-0.152836 -0.149116 -0.145399 -0.141694 -0.138002 -0.134314 -0.130644
-0.126982;
#X coords 0 1 49 -1 300 210 1 0 0;
#X restore 526 404 graph;
#X obj 498 155 hsl 300 15 0 8 0 0 empty empty empty -2 -8 0 10 -262144
-1 -1 4800 1;
#X msg 481 184 w \$1;
#X obj 782 314 snapshot~;
#X floatatom 792 351 0 0 0 0 - - -;
#X obj 778 243 tgl 15 0 empty empty empty 17 7 0 10 -262144 -1 -1 0
1;
#X obj 779 278 metro 1;
#X obj 1007 505 snapshot~;
#X floatatom 1017 542 0 0 0 0 - - -;
#X obj 1007 424 tgl 15 0 empty empty empty 17 7 0 10 -262144 -1 -1
0 1;
#X obj 1008 459 metro 1;
#X obj 898 516 * 4;
#X obj 917 428 osc~ 8;
#X obj 131 306 osc2~;
#X obj 686 329 + 1;
#X obj 687 357 * 4;
#X obj 905 544 + 440;
#X text 735 25 frequency;
#X text 803 152 wavetable;
#X obj 384 86 hsl 300 15 0 8 0 0 empty empty empty -2 -8 0 10 -262144
-1 -1 29800 1;
#X text 689 82 detune;
#X msg 387 114 d \$1;
#X msg 28 99 23437;
#X obj 442 121 hsl 1000 15 0 36 0 0 empty empty empty -2 -8 0 10 -262144
-1 -1 99900 1;
#X text 1449 117 breadth;
#X msg 431 152 b \$1;
#X obj 695 262 osc~ 0.02;
#X obj 1075 270 snapshot~;
#X floatatom 1085 307 0 0 0 0 - - -;
#X obj 1071 199 tgl 15 0 empty empty empty 17 7 0 10 -262144 -1 -1
0 1;
#X obj 1072 234 metro 1;
#X obj 980 312 / 2;
#X obj 979 285 + 1;
#X obj 981 338 * 36;
#X obj 987 217 osc~ 0.01;
#X msg 123 12 reset;
#X obj 270 59 hsl 512 15 0 5 0 0 empty empty empty -2 -8 0 10 -262144
-1 -1 12500 1;
#X msg 259 100 p \$1;
#X text 786 54 pan width;
#X obj 187 578 *~ 0.3;
#X obj 254 580 *~ 0.3;
#X obj 318 314 loadbang;
#X obj 546 189 hsl 300 15 0 10 0 0 empty empty empty -2 -8 0 10 -262144
-1 -1 10000 1;
#X text 851 186 wavetable spread;
#X msg 529 218 ws \$1;
#X connect 2 0 5 0;
#X connect 2 0 21 0;
#X connect 3 0 21 0;
#X connect 4 0 21 0;
#X connect 7 0 6 0;
#X connect 9 0 10 0;
#X connect 10 0 21 0;
#X connect 11 0 12 0;
#X connect 11 0 12 0;
#X connect 11 0 22 0;
#X connect 13 0 14 0;
#X connect 14 0 11 0;
#X connect 15 0 16 0;
#X connect 15 0 16 0;
#X connect 15 0 19 0;
#X connect 17 0 18 0;
#X connect 18 0 15 0;
#X connect 19 0 24 0;
#X connect 20 0 15 0;
#X connect 21 0 6 0;
#X connect 21 0 47 0;
#X connect 21 1 48 0;
#X connect 22 0 23 0;
#X connect 23 0 9 0;
#X connect 24 0 2 0;
#X connect 27 0 29 0;
#X connect 29 0 21 0;
#X connect 30 0 21 0;
#X connect 31 0 33 0;
#X connect 33 0 21 0;
#X connect 34 0 11 0;
#X connect 35 0 36 0;
#X connect 35 0 36 0;
#X connect 35 0 40 0;
#X connect 37 0 38 0;
#X connect 38 0 35 0;
#X connect 39 0 41 0;
#X connect 40 0 39 0;
#X connect 41 0 31 0;
#X connect 42 0 35 0;
#X connect 43 0 21 0;
#X connect 44 0 45 0;
#X connect 45 0 21 0;
#X connect 47 0 1 0;
#X connect 48 0 1 1;
#X connect 49 0 7 0;
#X connect 50 0 52 0;
#X connect 52 0 21 0;
