#N canvas 2153 91 1453 952 12;
#X obj 37 37 sirena;
#X obj 99 627 dac~;
#X obj 60 565 *~ 0.05;
#X obj 249 53 hsl 500 15 0 18000 0 0 empty empty empty -2 -8 0 10 -262144
-1 -1 7100 1;
#X obj 106 108 mtof;
#X msg 48 144 220;
#X floatatom 230 456 5 0 0 0 - - -;
#X msg 148 153 100;
#X obj 127 567 *~ 0.05;
#X floatatom 255 107 15 0 0 0 - - -;
#X obj 310 223 tgl 25 0 empty empty empty 17 7 0 10 -262144 -1 -1 0
1;
#X obj 276 302 tabwrite~ osc;
#X obj 310 265 metro 200;
#N canvas 642 79 636 999 (subpatch) 0;
#X array osc 50 float 5;
#A 0 -0.424068 -0.241195 -0.177533 -0.175935 -0.183029 -0.185779 -0.185919
-0.203834 -0.431748 -0.521941 -0.531371 -0.53725 -0.545692 -0.55226
-0.556249 -0.558256 -0.559004 -0.558993 -0.558558 -0.557971 -0.557385
-0.556883 -0.556493 -0.472268 -0.360256 -0.270286 -0.211425 -0.182784
-0.174015 -0.17481 -0.178723 -0.182478 -0.0716527 0.0619103 0.105308
0.140169 0.166618 0.182046 0.189162 0.191136 0.190452 0.188776 0.187061
0.185735 0.184891 0.184461 0.383514 0.495472 0.547917 0.563182;
#X coords 0 1 49 -1 300 210 1 0 0;
#X restore 481 350 graph;
#X obj 446 123 hsl 300 15 0 8 0 0 empty empty empty -2 -8 0 10 -262144
-1 -1 0 1;
#X msg 429 152 w \$1;
#X obj 727 243 snapshot~;
#X floatatom 737 280 0 0 0 0 - - -;
#X obj 727 162 tgl 15 0 empty empty empty 17 7 0 10 -262144 -1 -1 0
1;
#X obj 728 197 metro 1;
#X obj 1013 149 snapshot~;
#X floatatom 1023 186 0 0 0 0 - - -;
#X obj 1013 68 tgl 15 0 empty empty empty 17 7 0 10 -262144 -1 -1 0
1;
#X obj 1014 103 metro 1;
#X obj 904 160 * 4;
#X obj 923 72 osc~ 8;
#X obj 123 229 osc2~;
#X obj 629 232 + 1;
#X obj 629 270 * 4;
#X obj 911 188 + 440;
#X obj 637 166 osc~ 2;
#X text 756 50 frequency;
#X text 751 120 wavetable;
#X obj 384 86 hsl 300 15 0 8 0 0 empty empty empty -2 -8 0 10 -262144
-1 -1 0 1;
#X text 689 82 detune;
#X msg 387 114 d \$1;
#X msg 28 99 23437;
#X connect 2 0 1 0;
#X connect 3 0 9 0;
#X connect 3 0 26 0;
#X connect 4 0 26 0;
#X connect 5 0 26 0;
#X connect 6 0 26 0;
#X connect 7 0 26 0;
#X connect 8 0 1 1;
#X connect 10 0 12 0;
#X connect 12 0 11 0;
#X connect 14 0 15 0;
#X connect 15 0 26 0;
#X connect 16 0 17 0;
#X connect 16 0 17 0;
#X connect 16 0 27 0;
#X connect 18 0 19 0;
#X connect 19 0 16 0;
#X connect 20 0 21 0;
#X connect 20 0 21 0;
#X connect 20 0 24 0;
#X connect 22 0 23 0;
#X connect 23 0 20 0;
#X connect 24 0 29 0;
#X connect 25 0 20 0;
#X connect 26 0 2 0;
#X connect 26 0 8 0;
#X connect 26 0 11 0;
#X connect 27 0 28 0;
#X connect 28 0 14 0;
#X connect 29 0 3 0;
#X connect 30 0 16 0;
#X connect 33 0 35 0;
#X connect 35 0 26 0;
#X connect 36 0 26 0;
