#N canvas 2 79 1916 999 12;
#X obj 37 37 sirena;
#X obj 228 838 dac~;
#X obj 228 28 hsl 500 15 20 18000 1 0 empty empty empty -2 -8 0 10
-262144 -1 -1 9800 1;
#X msg 48 144 220;
#X msg 148 153 100;
#X floatatom 146 75 15 0 0 0 - - -;
#X obj 286 577 tabwrite~ osc;
#X obj 320 540 metro 200;
#N canvas 642 79 636 999 (subpatch) 0;
#X array osc 50 float 5;
#A 0 0.024939 0.0253078 0.0256567 0.0260725 0.0265067 0.0269069 0.0272847
0.0276427 0.0280525 0.0284558 0.0288599 0.029262 0.0296324 0.0299743
0.0304118 0.0308505 0.0311922 0.0315714 0.0319761 0.0323552 0.0327726
0.0331946 0.0335515 0.0339202 0.0343063 0.0347241 0.0351463 0.035474
0.0358568 0.0362565 0.0366077 0.0370308 0.037445 0.0377441 0.0381287
0.0385764 0.0389458 0.0393344 0.0396985 0.0400542 0.0404824 0.0408627
0.0412664 0.0416266 0.0419396 0.0423773 0.0428075 0.0431116 0.0435015
0.0438956;
#X coords 0 1 49 -1 300 210 1 0 0;
#X restore 510 640 graph;
#X obj 498 155 hsl 300 15 0 8 0 0 empty empty empty -2 -8 0 10 -262144
-1 -1 10700 1;
#X msg 481 184 w \$1;
#X obj 823 408 snapshot~;
#X floatatom 833 445 0 0 0 0 - - -;
#X obj 819 337 tgl 15 0 empty empty empty 17 7 0 10 -262144 -1 -1 0
1;
#X obj 820 372 metro 1;
#X obj 1092 422 snapshot~;
#X floatatom 1102 459 0 0 0 0 - - -;
#X obj 1092 341 tgl 15 0 empty empty empty 17 7 0 10 -262144 -1 -1
0 1;
#X obj 1093 376 metro 1;
#X obj 983 433 * 4;
#X obj 1002 345 osc~ 8;
#X obj 133 504 osc2~;
#X obj 727 423 + 1;
#X obj 728 451 * 4;
#X obj 990 461 + 440;
#X text 735 25 frequency;
#X text 803 152 wavetable;
#X obj 384 86 hsl 300 15 0 8 0 0 empty empty empty -2 -8 0 10 -262144
-1 -1 800 1;
#X text 689 82 detune;
#X msg 387 114 d \$1;
#X msg 28 99 23437;
#X obj 442 121 hsl 1000 15 0 36 0 0 empty empty empty -2 -8 0 10 -262144
-1 -1 99900 1;
#X text 1449 117 breadth;
#X msg 431 152 b \$1;
#X obj 736 356 osc~ 0.02;
#X obj 1238 231 snapshot~;
#X floatatom 1248 268 0 0 0 0 - - -;
#X obj 1236 165 tgl 15 0 empty empty empty 17 7 0 10 -262144 -1 -1
0 1;
#X obj 1235 195 metro 1;
#X obj 1143 273 / 2;
#X obj 1142 246 + 1;
#X obj 1144 299 * 36;
#X obj 1150 178 osc~ 0.01;
#X msg 123 12 reset;
#X obj 270 59 hsl 512 15 0 5 0 0 empty empty empty -2 -8 0 10 -262144
-1 -1 4800 1;
#X msg 259 100 p \$1;
#X text 786 54 pan width;
#X obj 189 776 *~ 0.3;
#X obj 256 778 *~ 0.3;
#X obj 320 512 loadbang;
#X obj 546 189 hsl 300 15 0 10 0 0 empty empty empty -2 -8 0 10 -262144
-1 -1 1400 1;
#X text 851 186 wavetable spread;
#X msg 529 218 ws \$1;
#X obj 603 239 hsl 300 15 0 2 0 0 empty empty empty -2 -8 0 10 -262144
-1 -1 3000 1;
#X obj 651 273 hsl 300 15 0 100 0 0 empty empty empty -2 -8 0 10 -262144
-1 -1 1200 1;
#X text 908 236 fm multiple;
#X text 956 270 fm intensity;
#X msg 586 268 fm \$1;
#X msg 634 302 fmi \$1;
#X floatatom 538 273 5 0 0 0 - - -;
#X connect 2 0 5 0;
#X connect 2 0 21 0;
#X connect 3 0 21 0;
#X connect 4 0 21 0;
#X connect 7 0 6 0;
#X connect 9 0 10 0;
#X connect 10 0 21 0;
#X connect 11 0 12 0;
#X connect 11 0 12 0;
#X connect 11 0 22 0;
#X connect 13 0 14 0;
#X connect 14 0 11 0;
#X connect 15 0 16 0;
#X connect 15 0 16 0;
#X connect 15 0 19 0;
#X connect 17 0 18 0;
#X connect 18 0 15 0;
#X connect 19 0 24 0;
#X connect 20 0 15 0;
#X connect 21 0 6 0;
#X connect 21 0 47 0;
#X connect 21 1 48 0;
#X connect 22 0 23 0;
#X connect 23 0 9 0;
#X connect 24 0 2 0;
#X connect 27 0 29 0;
#X connect 29 0 21 0;
#X connect 30 0 21 0;
#X connect 31 0 33 0;
#X connect 33 0 21 0;
#X connect 34 0 11 0;
#X connect 35 0 36 0;
#X connect 35 0 36 0;
#X connect 35 0 40 0;
#X connect 37 0 38 0;
#X connect 38 0 35 0;
#X connect 39 0 41 0;
#X connect 40 0 39 0;
#X connect 41 0 31 0;
#X connect 42 0 35 0;
#X connect 43 0 21 0;
#X connect 44 0 45 0;
#X connect 45 0 21 0;
#X connect 47 0 1 0;
#X connect 48 0 1 1;
#X connect 49 0 7 0;
#X connect 50 0 52 0;
#X connect 52 0 21 0;
#X connect 53 0 57 0;
#X connect 53 0 59 0;
#X connect 54 0 58 0;
#X connect 57 0 21 0;
#X connect 58 0 21 0;
